<svg width="32" height="32" fill="none" xmlns="http://www.w3.org/2000/svg"><g clip-path="url(#a)"><path d="M16 32c8.837 0 16-7.163 16-16S24.837 0 16 0 0 7.163 0 16s7.163 16 16 16Z" fill="#FED056"/><path d="M16 29.038c7.2 0 13.038-5.837 13.038-13.038C29.038 8.8 23.2 2.963 16 2.963S2.963 8.8 2.963 16C2.963 23.2 8.8 29.038 16 29.038Z" fill="#FEB635"/><path d="M29.038 16c0 7.188-5.85 13.038-13.038 13.038-2.343 0-4.537-.62-6.437-1.707a12.965 12.965 0 0 0 5.812 1.369c7.188 0 13.038-5.85 13.038-13.037 0-4.844-2.663-9.082-6.6-11.325 4.281 2.137 7.225 6.556 7.225 11.662ZM16.888 3.575c2.569 0 4.962.75 6.975 2.031A13.023 13.023 0 0 0 16 2.97c-7.187 0-13.037 5.844-13.037 13.037 0 4.638 2.437 8.725 6.1 11.025C5.9 24.65 3.85 20.87 3.85 16.613c0-7.188 5.85-13.038 13.038-13.038Z" fill="#FC9924"/><g filter="url(#b)"><path d="M22.976 22.857h-1.262c1.063-2.235 1.595-4.52 1.595-6.857 0-2.337-.532-4.623-1.595-6.857h1.262c1.063 2.234 1.595 4.52 1.595 6.857 0 2.336-.532 4.622-1.595 6.857Z" fill="#FED056"/></g><g filter="url(#c)"><path d="M18.113 13.506v-1.308h1.316v7.604h-1.316v-1.308C17.468 19.498 16.515 20 15.255 20c-1.069 0-1.971-.385-2.707-1.156-.746-.78-1.12-1.729-1.12-2.844 0-1.105.374-2.048 1.12-2.829.746-.78 1.648-1.171 2.707-1.171 1.26 0 2.213.502 2.858 1.506Zm-2.692 5.216c.766 0 1.407-.258 1.92-.775.515-.538.772-1.186.772-1.947 0-.77-.257-1.414-.771-1.932-.514-.527-1.155-.79-1.92-.79-.757 0-1.392.263-1.906.79-.514.518-.772 1.161-.772 1.932 0 .76.258 1.41.772 1.947.514.517 1.149.775 1.905.775Z" fill="#FED056"/></g><g filter="url(#d)"><path d="M9.715 22.857H8.453C7.389 20.622 6.857 18.337 6.857 16c0-2.337.532-4.623 1.596-6.857h1.262C8.65 11.377 8.119 13.663 8.119 16c0 2.336.532 4.622 1.596 6.857Z" fill="#FED056"/></g></g><defs><filter id="b" x="21.714" y="9.143" width="3.857" height="14.714" filterUnits="userSpaceOnUse" color-interpolation-filters="sRGB"><feFlood flood-opacity="0" result="BackgroundImageFix"/><feColorMatrix in="SourceAlpha" values="0 0 0 0 0 0 0 0 0 0 0 0 0 0 0 0 0 0 127 0" result="hardAlpha"/><feOffset dx="1" dy="1"/><feComposite in2="hardAlpha" operator="out"/><feColorMatrix values="0 0 0 0 0.976471 0 0 0 0 0.592157 0 0 0 0 0.141176 0 0 0 1 0"/><feBlend in2="BackgroundImageFix" result="effect1_dropShadow_2160_2"/><feBlend in="SourceGraphic" in2="effect1_dropShadow_2160_2" result="shape"/></filter><filter id="c" x="11.429" y="12" width="9" height="9" filterUnits="userSpaceOnUse" color-interpolation-filters="sRGB"><feFlood flood-opacity="0" result="BackgroundImageFix"/><feColorMatrix in="SourceAlpha" values="0 0 0 0 0 0 0 0 0 0 0 0 0 0 0 0 0 0 127 0" result="hardAlpha"/><feOffset dx="1" dy="1"/><feComposite in2="hardAlpha" operator="out"/><feColorMatrix values="0 0 0 0 0.976471 0 0 0 0 0.592157 0 0 0 0 0.141176 0 0 0 1 0"/><feBlend in2="BackgroundImageFix" result="effect1_dropShadow_2160_2"/><feBlend in="SourceGraphic" in2="effect1_dropShadow_2160_2" result="shape"/></filter><filter id="d" x="6.857" y="9.143" width="3.857" height="14.714" filterUnits="userSpaceOnUse" color-interpolation-filters="sRGB"><feFlood flood-opacity="0" result="BackgroundImageFix"/><feColorMatrix in="SourceAlpha" values="0 0 0 0 0 0 0 0 0 0 0 0 0 0 0 0 0 0 127 0" result="hardAlpha"/><feOffset dx="1" dy="1"/><feComposite in2="hardAlpha" operator="out"/><feColorMatrix values="0 0 0 0 0.976471 0 0 0 0 0.592157 0 0 0 0 0.141176 0 0 0 1 0"/><feBlend in2="BackgroundImageFix" result="effect1_dropShadow_2160_2"/><feBlend in="SourceGraphic" in2="effect1_dropShadow_2160_2" result="shape"/></filter><clipPath id="a"><path fill="#fff" d="M0 0h32v32H0z"/></clipPath></defs></svg>