<svg width="15" height="15" fill="none" xmlns="http://www.w3.org/2000/svg"><path d="M6.25 7.5h2.5M6.25 5h2.5m0 8.125V11.25a1.25 1.25 0 0 0-2.5 0v1.875" stroke="#fff" stroke-linecap="round" stroke-linejoin="round"/><path d="M3.75 6.25H2.5A1.25 1.25 0 0 0 1.25 7.5v4.375a1.25 1.25 0 0 0 1.25 1.25h10a1.25 1.25 0 0 0 1.25-1.25v-6.25a1.25 1.25 0 0 0-1.25-1.25h-1.25" stroke="#fff" stroke-linecap="round" stroke-linejoin="round"/><path d="M3.75 13.125v-10A1.25 1.25 0 0 1 5 1.875h5a1.25 1.25 0 0 1 1.25 1.25v10" stroke="#fff" stroke-linecap="round" stroke-linejoin="round"/></svg>