<svg width="35" height="35" fill="none" xmlns="http://www.w3.org/2000/svg"><rect width="35" height="35" rx="4" fill="#7C3552"/><path d="M17.5 10.15c.594 0 1.164.221 1.584.615.42.394.656.928.656 1.485v4.2h-4.48v-4.2c0-.557.236-1.091.656-1.485.42-.394.99-.615 1.584-.615Zm3.36 6.3v-4.2c0-.835-.354-1.637-.984-2.227A3.477 3.477 0 0 0 17.5 9.1c-.891 0-1.746.332-2.376.923a3.053 3.053 0 0 0-.984 2.227v4.2c-.594 0-1.164.221-1.584.615-.42.394-.656.928-.656 1.485v5.25c0 .557.236 1.091.656 1.485.42.394.99.615 1.584.615h6.72c.594 0 1.164-.221 1.584-.615.42-.394.656-.928.656-1.485v-5.25c0-.557-.236-1.091-.656-1.485a2.317 2.317 0 0 0-1.584-.615Z" fill="#fff"/></svg>