<svg width="16" height="16" fill="none" xmlns="http://www.w3.org/2000/svg"><path d="M9.4 12.2A5.6 5.6 0 1 0 9.4 1a5.6 5.6 0 0 0 0 11.2Z" fill="#fff" stroke="#fff" stroke-width="1.05" stroke-linecap="round"/><path d="M1.81 7.3a4.978 4.978 0 0 0 6.89 6.89" stroke="#fff" stroke-width="1.05" stroke-linecap="round"/><path d="M9.69 3.8a.3.3 0 1 0-.6 0h.6Zm-.6 5.6a.3.3 0 0 0 .6 0h-.6Zm1.279-3.986a.3.3 0 1 0 .588-.117l-.588.117ZM8.293 7.78a.3.3 0 0 0-.586.128l.586-.128ZM9.39 6.22c-.444 0-.684-.084-.812-.185-.111-.09-.18-.23-.18-.483h-.6c0 .37.107.713.406.952.284.227.69.315 1.186.315v-.6Zm-.993-.668c0-.422.406-.83.993-.83v-.6c-.84 0-1.593.603-1.593 1.43h.6ZM10.5 7.649c0 .313-.116.501-.287.622-.186.132-.469.207-.824.207v.6c.425 0 .847-.087 1.172-.318.34-.241.539-.618.539-1.111h-.6Zm-1.11-.83c.446 0 .718.08.874.2.14.107.236.287.236.63h.6c0-.464-.138-.85-.47-1.105-.313-.242-.747-.325-1.24-.325v.6Zm.3-2.397V3.8h-.6v.622h.6Zm-.6 4.356V9.4h.6v-.622h-.6Zm.3-4.056c.52 0 .905.326.979.692l.588-.117c-.139-.695-.813-1.175-1.568-1.175v.6Zm0 3.756c-.599 0-1.02-.344-1.097-.698l-.586.128c.154.707.89 1.17 1.682 1.17v-.6Z" fill="#E05369"/></svg>