<svg width="48" height="48" fill="none" xmlns="http://www.w3.org/2000/svg"><rect width="48" height="48" rx="5.486" fill="#E05369"/><path d="M24 13.92c.815 0 1.596.303 2.172.843.576.54.9 1.273.9 2.036v5.76h-6.144V16.8c0-.763.323-1.496.9-2.036A3.179 3.179 0 0 1 24 13.919Zm4.608 8.64V16.8c0-1.146-.486-2.245-1.35-3.055A4.768 4.768 0 0 0 24 12.48a4.769 4.769 0 0 0-3.259 1.265c-.864.81-1.35 1.909-1.35 3.054v5.76c-.814 0-1.595.304-2.171.844-.576.54-.9 1.273-.9 2.037v7.2c0 .763.323 1.496.9 2.036.576.54 1.357.843 2.172.843h9.216c.815 0 1.596-.303 2.172-.843.576-.54.9-1.273.9-2.037v-7.2c0-.763-.324-1.496-.9-2.036a3.179 3.179 0 0 0-2.172-.843Z" fill="#fff"/></svg>