<svg width="101" height="20" fill="none" xmlns="http://www.w3.org/2000/svg"><path d="M2.853 7.28C3.44 6.693 4.17 6.231 5.04 5.893c.889-.337 1.68-.506 2.373-.506 1.76 0 3.005.515 3.734 1.546.746 1.031 1.12 2.294 1.12 3.787v8.107H8.8V10.88c0-.818-.196-1.44-.587-1.867-.39-.444-.96-.666-1.706-.666-.498 0-1.023.133-1.574.4a8.017 8.017 0 0 0-1.466.88v9.2H0V5.893h1.813l1.04 1.387Zm19.309 11.867c-2.24 0-4.009-.614-5.307-1.84-1.28-1.227-1.92-2.871-1.92-4.934 0-2.062.578-3.715 1.734-4.96 1.173-1.244 2.764-1.866 4.773-1.866 2.027 0 3.511.675 4.453 2.026.96 1.334 1.44 2.916 1.44 4.747v1.067h-8.72c.16.853.552 1.537 1.174 2.053.622.498 1.44.747 2.453.747.587 0 1.111-.071 1.573-.214.48-.16 1.031-.382 1.654-.666l1.013 2.506c-.604.463-1.342.8-2.213 1.014-.854.213-1.556.32-2.107.32Zm1.893-8.08c-.177-.871-.497-1.511-.96-1.92-.462-.427-1.04-.64-1.733-.64-.711 0-1.307.222-1.787.666-.48.427-.79 1.058-.933 1.894h5.413ZM38 18.56c-.284.231-.693.418-1.227.56-.515.16-.977.24-1.386.24-1.6 0-2.863-.4-3.787-1.2-.907-.818-1.36-1.973-1.36-3.467V8.587h-1.733V5.92h1.733V2.853l3.44-.613v3.68h2.347l1.066 2.667H33.68v5.493c0 .676.16 1.236.48 1.68.32.427.791.64 1.413.64a3.077 3.077 0 0 0 1.414-.347L38 18.56Zm12.935.267-2.693-7.92-2.587 7.92h-2.933L38.428 6.373l3.574-.48 2.267 7.52 2.133-7.52h3.813l2.267 7.52 2.107-7.52h3.653l-4.4 12.934h-2.907Zm15.09.32c-2.044-.018-3.644-.64-4.8-1.867-1.137-1.227-1.706-2.88-1.706-4.96 0-2.062.595-3.707 1.786-4.933 1.21-1.227 2.854-1.84 4.934-1.84 2.15 0 3.813.64 4.986 1.92 1.192 1.262 1.787 2.924 1.787 4.986 0 2.063-.64 3.69-1.92 4.88-1.28 1.191-2.969 1.796-5.067 1.814Zm3.414-6.694c0-1.226-.276-2.186-.827-2.88-.533-.71-1.298-1.066-2.293-1.066-1.014 0-1.805.31-2.374.933-.569.622-.853 1.573-.853 2.853 0 1.28.24 2.25.72 2.907.498.658 1.253.987 2.267.987.995 0 1.804-.294 2.426-.88.623-.605.934-1.556.934-2.854Zm13.436-6.56.693 2.774c-.587 0-1.271.169-2.053.506-.765.338-1.52.836-2.267 1.494v8.16H75.78V5.893h1.814l1.146 1.894c.534-.463 1.183-.89 1.947-1.28.764-.41 1.493-.614 2.187-.614ZM88.965 0v10.613l5.547-5.093 1.947 2.453-3.627 3.174 4.747 7.68h-3.974l-3.253-5.467-1.387 1.227v4.24h-3.44V.293L88.965 0Zm10.889 4.279a.682.682 0 0 0-.409.147l-.753-.601a1.23 1.23 0 0 0-.028-1.321l.585-.516c.13.093.28.16.45.16a.786.786 0 1 0-.784-.786c0 .137.044.259.106.371l-.588.517a1.23 1.23 0 0 0-.808-.305c-.117 0-.23.022-.338.053l-.395-.896a.494.494 0 1 0-.34.14c.01 0 .017-.005.027-.005l.395.897c-.355.22-.595.61-.595 1.057v.01l-.41.06a.9.9 0 0 0-.847-.61.91.91 0 0 0 0 1.817.904.904 0 0 0 .9-.868l.413-.061c.114.393.417.702.804.83l-.132.727a.488.488 0 0 0 .089.97.486.486 0 0 0 .25-.91l.13-.725c.017 0 .033.005.05.005.331 0 .63-.131.855-.342l.744.595a.669.669 0 0 0-.065.284.694.694 0 1 0 .694-.694Z" fill="#fff"/></svg>