<svg width="18" height="18" fill="none" xmlns="http://www.w3.org/2000/svg"><path d="M12.343 7.264a.579.579 0 0 1 .578-.578h1.158a.579.579 0 0 1 .578.578v1.157A.579.579 0 0 1 14.08 9h-1.16a.579.579 0 0 1-.578-.579V7.264Z" fill="#7C3552"/><path d="M3.938 0A.563.563 0 0 1 4.5.563v.562h9V.562a.563.563 0 0 1 1.125 0v.563h1.125A2.25 2.25 0 0 1 18 3.375V15.75A2.25 2.25 0 0 1 15.75 18H2.25A2.25 2.25 0 0 1 0 15.75V3.375a2.25 2.25 0 0 1 2.25-2.25h1.125V.562A.562.562 0 0 1 3.938 0ZM1.124 4.5v11.25a1.125 1.125 0 0 0 1.125 1.125h13.5a1.125 1.125 0 0 0 1.125-1.125V4.5H1.125Z" fill="#7C3552"/></svg>