<svg width="31" height="31" fill="none" xmlns="http://www.w3.org/2000/svg"><path fill-rule="evenodd" clip-rule="evenodd" d="M2.857 10.263c-.432-2 .13-4.17 1.683-5.723a6.222 6.222 0 0 1 5.723-1.683A6.222 6.222 0 0 1 15.5 0a6.223 6.223 0 0 1 5.237 2.857c2-.432 4.17.13 5.723 1.683a6.223 6.223 0 0 1 1.683 5.723A6.222 6.222 0 0 1 31 15.5a6.223 6.223 0 0 1-2.857 5.237c.432 2-.13 4.17-1.683 5.723a6.223 6.223 0 0 1-5.723 1.683A6.223 6.223 0 0 1 15.5 31a6.222 6.222 0 0 1-5.237-2.857c-2 .432-4.17-.13-5.723-1.683a6.222 6.222 0 0 1-1.683-5.723A6.223 6.223 0 0 1 0 15.5a6.222 6.222 0 0 1 2.857-5.237Zm8.219 9.654a6.228 6.228 0 1 0 8.806-8.808 6.228 6.228 0 0 0-8.806 8.808Z" fill="#fff"/></svg>