<svg width="24" height="14" fill="none" xmlns="http://www.w3.org/2000/svg"><path fill-rule="evenodd" clip-rule="evenodd" d="M3.526 0H.9C.15 0 0 .347 0 .73c0 .681.89 4.07 4.145 8.55C6.315 12.341 9.37 14 12.153 14c1.669 0 1.875-.368 1.875-1.003v-2.313c0-.737.158-.884.687-.884.39 0 1.057.192 2.615 1.667C19.11 13.215 19.403 14 20.405 14h2.625c.75 0 1.126-.368.91-1.095-.238-.725-1.088-1.776-2.215-3.023-.612-.71-1.53-1.475-1.809-1.858-.389-.491-.278-.71 0-1.147 0 0 3.2-4.426 3.533-5.929.167-.546 0-.948-.794-.948H20.03c-.668 0-.976.347-1.143.73 0 0-1.335 3.196-3.226 5.273-.612.6-.89.792-1.224.792-.167 0-.409-.191-.409-.738V.948c0-.656-.194-.948-.75-.948H9.152c-.417 0-.668.304-.668.593 0 .621.946.765 1.043 2.513v3.798c0 .833-.153.984-.487.984-.89 0-3.055-3.211-4.34-6.885C4.45.288 4.198 0 3.527 0Z" fill="#fff"/></svg>