<svg width="15" height="15" fill="none" xmlns="http://www.w3.org/2000/svg"><path d="M9.396 5.9a.404.404 0 0 1 0 .7L6.855 8.07a.403.403 0 0 1-.605-.35V4.78a.403.403 0 0 1 .604-.35L9.396 5.9Zm-5.021 7.225h6.25" stroke="#fff" stroke-width="1.25" stroke-linecap="round" stroke-linejoin="round"/><path d="M12.5 1.875h-10c-.69 0-1.25.56-1.25 1.25v6.25c0 .69.56 1.25 1.25 1.25h10c.69 0 1.25-.56 1.25-1.25v-6.25c0-.69-.56-1.25-1.25-1.25Z" stroke="#fff" stroke-width="1.25" stroke-linecap="round" stroke-linejoin="round"/></svg>