<svg width="20" height="20" fill="none" xmlns="http://www.w3.org/2000/svg"><path d="M5 18.333a1.667 1.667 0 0 1-1.667-1.666V3.333A1.667 1.667 0 0 1 5 1.667h6.667a2 2 0 0 1 1.42.588l2.99 2.99a2 2 0 0 1 .59 1.422v10A1.667 1.667 0 0 1 15 18.333H5Z" stroke="#fff" stroke-width="2" stroke-linecap="round" stroke-linejoin="round"/><path d="M11.667 1.667v4.166a.833.833 0 0 0 .833.834h4.167m-3.334 11.666a3.333 3.333 0 0 0-6.666 0" stroke="#fff" stroke-width="2" stroke-linecap="round" stroke-linejoin="round"/><path d="M10 15a2.5 2.5 0 1 0 0-5 2.5 2.5 0 0 0 0 5Z" stroke="#fff" stroke-width="2" stroke-linecap="round" stroke-linejoin="round"/></svg>