<svg width="13" height="13" fill="none" xmlns="http://www.w3.org/2000/svg"><g clip-path="url(#a)" fill="#fff"><path d="M6.5 2.292A4.213 4.213 0 0 0 2.292 6.5 4.213 4.213 0 0 0 6.5 10.709 4.213 4.213 0 0 0 10.709 6.5 4.213 4.213 0 0 0 6.5 2.292ZM8.399 6.5 6.5 8.399 4.601 6.5 6.5 4.601 8.399 6.5Z"/><path d="M11.096 1.904A6.458 6.458 0 0 0 6.5 0a6.458 6.458 0 0 0-4.596 1.904A6.458 6.458 0 0 0 0 6.5c0 1.736.676 3.368 1.904 4.596A6.457 6.457 0 0 0 6.5 13a6.457 6.457 0 0 0 4.596-1.904A6.457 6.457 0 0 0 13 6.5a6.457 6.457 0 0 0-1.904-4.596ZM6.5 11.47c-2.74 0-4.97-2.23-4.97-4.97 0-2.74 2.23-4.97 4.97-4.97 2.74 0 4.97 2.23 4.97 4.97 0 2.74-2.23 4.97-4.97 4.97Z"/></g><defs><clipPath id="a"><path fill="#fff" d="M0 0h13v13H0z"/></clipPath></defs></svg>