<svg width="16" height="16" fill="none" xmlns="http://www.w3.org/2000/svg"><path d="M1.333 14a5.333 5.333 0 0 1 7.214-4.991m5.705 2.075a1.416 1.416 0 1 0-2.003-2.003l-2.673 2.675a1.333 1.333 0 0 0-.337.57l-.558 1.913a.333.333 0 0 0 .413.413l1.913-.558a1.34 1.34 0 0 0 .57-.337l2.675-2.673Z" stroke="#fff" stroke-width="1.25" stroke-linecap="round" stroke-linejoin="round"/><path d="M6.667 8.667a3.333 3.333 0 1 0 0-6.667 3.333 3.333 0 0 0 0 6.667Z" stroke="#fff" stroke-width="1.25" stroke-linecap="round" stroke-linejoin="round"/></svg>