<svg width="22" height="24" fill="none" xmlns="http://www.w3.org/2000/svg"><path d="M20.04 9.524v-4.03c-5.27-.224-5.438-5.01-5.438-5.46V0H10.53v15.697a3.225 3.225 0 1 1-2.286-3.087V8.453a7.304 7.304 0 1 0 6.363 7.244c0-.102 0-.204-.007-.305v-7.73c1.875 1.716 5.44 1.862 5.44 1.862Z" fill="#00F6EF"/><path d="M21.239 10.523V6.49c-5.27-.222-5.438-5.01-5.438-5.46V.996h-4.072v15.697a3.225 3.225 0 1 1-2.285-3.086V9.45a7.384 7.384 0 0 0-.943-.057 7.303 7.303 0 1 0 7.306 7.3c0-.102 0-.204-.008-.305v-7.73c1.875 1.716 5.44 1.865 5.44 1.865Z" fill="#fff"/><path d="M14.703.996c.196 1.07.77 2.741 2.441 3.72-1.277-1.489-1.342-3.409-1.342-3.686V.996h-1.1Zm6.536 9.527V6.49a7.517 7.517 0 0 1-1.2-.141v3.174s-3.565-.146-5.439-1.861v7.727a7.305 7.305 0 0 1-11.343 6.386 7.303 7.303 0 0 0 12.55-5.082c0-.102 0-.204-.008-.305v-7.73c1.875 1.716 5.44 1.865 5.44 1.865Z" fill="#FF004F"/><path d="M8.244 12.608A3.226 3.226 0 0 0 5.9 18.6a3.227 3.227 0 0 1 3.544-4.993V9.45a7.386 7.386 0 0 0-.943-.057c-.087 0-.173 0-.259.005l.002 3.21Z" fill="#FF004F"/></svg>