<svg width="18" height="18" fill="none" xmlns="http://www.w3.org/2000/svg"><path d="M.563 0a.563.563 0 0 1 .562.563v16.875a.562.562 0 1 1-1.125 0V.563A.563.563 0 0 1 .563 0ZM2.25 1.688a.563.563 0 0 1 .563-.563h4.5a.563.563 0 0 1 .562.563v1.125a.563.563 0 0 1-.563.562h-4.5a.563.563 0 0 1-.562-.563V1.688Zm2.25 4.5a.563.563 0 0 1 .563-.563h7.875a.562.562 0 0 1 .562.563v1.125a.563.563 0 0 1-.563.562H5.064a.563.563 0 0 1-.563-.563V6.188Zm2.25 4.5a.562.562 0 0 1 .563-.563h6.75a.562.562 0 0 1 .562.563v1.124a.562.562 0 0 1-.563.563h-6.75a.563.563 0 0 1-.562-.563v-1.124Zm2.25 4.5a.562.562 0 0 1 .563-.563h7.874a.562.562 0 0 1 .563.563v1.124a.562.562 0 0 1-.563.563H9.563A.563.563 0 0 1 9 16.312v-1.125Z" fill="#7C3552"/></svg>