<svg width="24" height="24" fill="none" xmlns="http://www.w3.org/2000/svg"><g clip-path="url(#a)" fill="#fff"><path d="M20.591 3.409A11.561 11.561 0 0 0 12.361 0c-1.538 0-3.037.298-4.454.885A11.58 11.58 0 0 0 4.132 3.41a11.562 11.562 0 0 0-3.41 8.23c0 1.854.448 3.696 1.296 5.337l-1.956 5.59a1.07 1.07 0 0 0 .255 1.117 1.07 1.07 0 0 0 1.118.256l5.589-1.957a11.673 11.673 0 0 0 5.337 1.295c3.11 0 6.032-1.21 8.23-3.409A11.562 11.562 0 0 0 24 11.638c0-3.108-1.21-6.03-3.409-8.23Zm-.995 15.464a10.163 10.163 0 0 1-7.235 2.997 10.25 10.25 0 0 1-4.802-1.197 1.084 1.084 0 0 0-.865-.066l-5.078 1.777 1.778-5.078a1.084 1.084 0 0 0-.068-.865A10.257 10.257 0 0 1 2.13 11.64c0-2.733 1.065-5.302 2.997-7.235a10.165 10.165 0 0 1 7.234-2.996c2.733 0 5.302 1.064 7.235 2.996a10.163 10.163 0 0 1 2.997 7.235c0 2.732-1.065 5.302-2.997 7.234Z"/><path d="M16.687 12.678a1.375 1.375 0 0 0-1.942 0l-.586.586a8.523 8.523 0 0 1-3.423-3.423l.586-.586a1.374 1.374 0 0 0 0-1.942L9.744 5.735a1.375 1.375 0 0 0-1.942 0L6.539 6.998c-.723.723-.759 1.966-.101 3.5.57 1.332 1.615 2.796 2.942 4.122 1.326 1.327 2.79 2.371 4.122 2.942.729.313 1.392.468 1.965.468.633 0 1.156-.19 1.536-.57l1.262-1.262c.26-.26.402-.604.402-.97 0-.368-.143-.712-.402-.972l-1.578-1.578Zm-.68 3.787c-.206.207-.84.28-1.95-.196-1.172-.502-2.48-1.441-3.682-2.644-1.203-1.203-2.141-2.51-2.643-3.682-.476-1.109-.404-1.744-.197-1.95l1.238-1.238 1.53 1.53-.734.732a1.074 1.074 0 0 0-.199 1.251 9.93 9.93 0 0 0 4.362 4.362c.417.212.92.132 1.25-.2l.734-.732 1.53 1.53-1.239 1.237Z"/></g><defs><clipPath id="a"><path fill="#fff" d="M0 0h24v24H0z"/></clipPath></defs></svg>