<svg width="32" height="32" viewBox="0 0 32 32" fill="none" xmlns="http://www.w3.org/2000/svg">
<g clip-path="url(#clip0_2160_2)">
<path d="M16 32C24.8366 32 32 24.8366 32 16C32 7.16344 24.8366 0 16 0C7.16344 0 0 7.16344 0 16C0 24.8366 7.16344 32 16 32Z" fill="#FED056"/>
<path d="M16.0004 29.0379C23.2008 29.0379 29.0379 23.2008 29.0379 16.0004C29.0379 8.79998 23.2008 2.96289 16.0004 2.96289C8.79998 2.96289 2.96289 8.79998 2.96289 16.0004C2.96289 23.2008 8.79998 29.0379 16.0004 29.0379Z" fill="#FEB635"/>
<path d="M29.0379 16C29.0379 23.1875 23.1879 29.0375 16.0004 29.0375C13.6566 29.0375 11.4629 28.4187 9.56289 27.3312C11.3129 28.2062 13.2879 28.7 15.3754 28.7C22.5629 28.7 28.4129 22.85 28.4129 15.6625C28.4129 10.8188 25.7504 6.58125 21.8129 4.3375C26.0941 6.475 29.0379 10.8938 29.0379 16ZM16.8879 3.575C19.4566 3.575 21.8504 4.325 23.8629 5.60625C21.6754 3.95625 18.9504 2.96875 16.0004 2.96875C8.81289 2.96875 2.96289 8.8125 2.96289 16.0063C2.96289 20.6437 5.40039 24.7313 9.06289 27.0312C5.90039 24.65 3.85039 20.8687 3.85039 16.6125C3.85039 9.425 9.70039 3.575 16.8879 3.575Z" fill="#FC9924"/>
<g filter="url(#filter0_d_2160_2)">
<path d="M22.9757 22.8569H21.7139C22.7774 20.6219 23.3092 18.3362 23.3092 15.9997C23.3092 13.6632 22.7774 11.3775 21.7139 9.14258H22.9757C24.0392 11.3775 24.571 13.6632 24.571 15.9997C24.571 18.3362 24.0392 20.6219 22.9757 22.8569Z" fill="#FED056"/>
</g>
<g filter="url(#filter1_d_2160_2)">
<path d="M18.113 13.5057V12.1977H19.4287V19.8023H18.113V18.4943C17.4678 19.4981 16.515 20 15.2548 20C14.1861 20 13.2838 19.6147 12.5478 18.8441C11.8017 18.0634 11.4287 17.1153 11.4287 16C11.4287 14.8948 11.8017 13.9518 12.5478 13.1711C13.2939 12.3904 14.1962 12 15.2548 12C16.515 12 17.4678 12.5019 18.113 13.5057ZM15.4211 18.7224C16.1874 18.7224 16.8276 18.4639 17.3418 17.9468C17.8559 17.4094 18.113 16.7605 18.113 16C18.113 15.2294 17.8559 14.5856 17.3418 14.0684C16.8276 13.5412 16.1874 13.2776 15.4211 13.2776C14.665 13.2776 14.0298 13.5412 13.5157 14.0684C13.0015 14.5856 12.7444 15.2294 12.7444 16C12.7444 16.7605 13.0015 17.4094 13.5157 17.9468C14.0298 18.4639 14.665 18.7224 15.4211 18.7224Z" fill="#FED056"/>
</g>
<g filter="url(#filter2_d_2160_2)">
<path d="M9.71456 22.8569H8.45278C7.38921 20.6219 6.85742 18.3362 6.85742 15.9997C6.85742 13.6632 7.38921 11.3775 8.45278 9.14258H9.71456C8.65099 11.3775 8.11921 13.6632 8.11921 15.9997C8.11921 18.3362 8.65099 20.6219 9.71456 22.8569Z" fill="#FED056"/>
</g>
</g>
<defs>
<filter id="filter0_d_2160_2" x="21.7139" y="9.14258" width="3.85742" height="14.7139" filterUnits="userSpaceOnUse" color-interpolation-filters="sRGB">
<feFlood flood-opacity="0" result="BackgroundImageFix"/>
<feColorMatrix in="SourceAlpha" type="matrix" values="0 0 0 0 0 0 0 0 0 0 0 0 0 0 0 0 0 0 127 0" result="hardAlpha"/>
<feOffset dx="1" dy="1"/>
<feComposite in2="hardAlpha" operator="out"/>
<feColorMatrix type="matrix" values="0 0 0 0 0.976471 0 0 0 0 0.592157 0 0 0 0 0.141176 0 0 0 1 0"/>
<feBlend mode="normal" in2="BackgroundImageFix" result="effect1_dropShadow_2160_2"/>
<feBlend mode="normal" in="SourceGraphic" in2="effect1_dropShadow_2160_2" result="shape"/>
</filter>
<filter id="filter1_d_2160_2" x="11.4287" y="12" width="9" height="9" filterUnits="userSpaceOnUse" color-interpolation-filters="sRGB">
<feFlood flood-opacity="0" result="BackgroundImageFix"/>
<feColorMatrix in="SourceAlpha" type="matrix" values="0 0 0 0 0 0 0 0 0 0 0 0 0 0 0 0 0 0 127 0" result="hardAlpha"/>
<feOffset dx="1" dy="1"/>
<feComposite in2="hardAlpha" operator="out"/>
<feColorMatrix type="matrix" values="0 0 0 0 0.976471 0 0 0 0 0.592157 0 0 0 0 0.141176 0 0 0 1 0"/>
<feBlend mode="normal" in2="BackgroundImageFix" result="effect1_dropShadow_2160_2"/>
<feBlend mode="normal" in="SourceGraphic" in2="effect1_dropShadow_2160_2" result="shape"/>
</filter>
<filter id="filter2_d_2160_2" x="6.85742" y="9.14258" width="3.85742" height="14.7139" filterUnits="userSpaceOnUse" color-interpolation-filters="sRGB">
<feFlood flood-opacity="0" result="BackgroundImageFix"/>
<feColorMatrix in="SourceAlpha" type="matrix" values="0 0 0 0 0 0 0 0 0 0 0 0 0 0 0 0 0 0 127 0" result="hardAlpha"/>
<feOffset dx="1" dy="1"/>
<feComposite in2="hardAlpha" operator="out"/>
<feColorMatrix type="matrix" values="0 0 0 0 0.976471 0 0 0 0 0.592157 0 0 0 0 0.141176 0 0 0 1 0"/>
<feBlend mode="normal" in2="BackgroundImageFix" result="effect1_dropShadow_2160_2"/>
<feBlend mode="normal" in="SourceGraphic" in2="effect1_dropShadow_2160_2" result="shape"/>
</filter>
<clipPath id="clip0_2160_2">
<rect width="32" height="32" fill="white"/>
</clipPath>
</defs>
</svg>
