<svg width="15" height="15" viewBox="0 0 15 15" fill="none" xmlns="http://www.w3.org/2000/svg">
<path d="M6.25 7.5H8.75" stroke="white" stroke-linecap="round" stroke-linejoin="round"/>
<path d="M6.25 5H8.75" stroke="white" stroke-linecap="round" stroke-linejoin="round"/>
<path d="M8.75 13.125V11.25C8.75 10.9185 8.6183 10.6005 8.38388 10.3661C8.14946 10.1317 7.83152 10 7.5 10C7.16848 10 6.85054 10.1317 6.61612 10.3661C6.3817 10.6005 6.25 10.9185 6.25 11.25V13.125" stroke="white" stroke-linecap="round" stroke-linejoin="round"/>
<path d="M3.75 6.25H2.5C2.16848 6.25 1.85054 6.3817 1.61612 6.61612C1.3817 6.85054 1.25 7.16848 1.25 7.5V11.875C1.25 12.2065 1.3817 12.5245 1.61612 12.7589C1.85054 12.9933 2.16848 13.125 2.5 13.125H12.5C12.8315 13.125 13.1495 12.9933 13.3839 12.7589C13.6183 12.5245 13.75 12.2065 13.75 11.875V5.625C13.75 5.29348 13.6183 4.97554 13.3839 4.74112C13.1495 4.5067 12.8315 4.375 12.5 4.375H11.25" stroke="white" stroke-linecap="round" stroke-linejoin="round"/>
<path d="M3.75 13.125V3.125C3.75 2.79348 3.8817 2.47554 4.11612 2.24112C4.35054 2.0067 4.66848 1.875 5 1.875H10C10.3315 1.875 10.6495 2.0067 10.8839 2.24112C11.1183 2.47554 11.25 2.79348 11.25 3.125V13.125" stroke="white" stroke-linecap="round" stroke-linejoin="round"/>
</svg>
