<svg width="35" height="35" viewBox="0 0 35 35" fill="none" xmlns="http://www.w3.org/2000/svg">
<rect width="35" height="35" rx="4" fill="#7C3552"/>
<path d="M17.5 10.15C18.0941 10.15 18.6639 10.3712 19.0839 10.7651C19.504 11.1589 19.74 11.693 19.74 12.25V16.45H15.26V12.25C15.26 11.693 15.496 11.1589 15.9161 10.7651C16.3362 10.3712 16.9059 10.15 17.5 10.15ZM20.86 16.45V12.25C20.86 11.4145 20.506 10.6133 19.8759 10.0226C19.2458 9.43185 18.3912 9.09998 17.5 9.09998C16.6089 9.09998 15.7543 9.43185 15.1241 10.0226C14.494 10.6133 14.14 11.4145 14.14 12.25V16.45C13.5459 16.45 12.9762 16.6712 12.5561 17.0651C12.136 17.4589 11.9 17.993 11.9 18.55V23.8C11.9 24.3569 12.136 24.8911 12.5561 25.2849C12.9762 25.6787 13.5459 25.9 14.14 25.9H20.86C21.4541 25.9 22.0239 25.6787 22.4439 25.2849C22.864 24.8911 23.1 24.3569 23.1 23.8V18.55C23.1 17.993 22.864 17.4589 22.4439 17.0651C22.0239 16.6712 21.4541 16.45 20.86 16.45Z" fill="white"/>
</svg>
