<svg width="16" height="16" viewBox="0 0 16 16" fill="none" xmlns="http://www.w3.org/2000/svg">
<path d="M9.39999 12.2C12.4928 12.2 15 9.69279 15 6.6C15 3.50721 12.4928 1 9.39999 1C6.30719 1 3.79999 3.50721 3.79999 6.6C3.79999 9.69279 6.30719 12.2 9.39999 12.2Z" fill="white" stroke="white" stroke-width="1.05" stroke-linecap="round"/>
<path d="M1.8096 7.29999C1.29766 8.08228 1 9.01747 1 10.0222C1 12.7713 3.22864 15 5.97782 15C6.98252 15 7.91771 14.7023 8.7 14.1904" stroke="white" stroke-width="1.05" stroke-linecap="round"/>
<path d="M9.68944 3.79999C9.68944 3.6343 9.55513 3.49999 9.38944 3.49999C9.22375 3.49999 9.08944 3.6343 9.08944 3.79999L9.68944 3.79999ZM9.08944 9.39999C9.08944 9.56567 9.22375 9.69999 9.38944 9.69999C9.55512 9.69999 9.68944 9.56567 9.68944 9.39999H9.08944ZM10.3689 5.41449C10.4014 5.57695 10.5595 5.68225 10.722 5.6497C10.8844 5.61714 10.9898 5.45905 10.9572 5.2966L10.3689 5.41449ZM8.2931 7.78044C8.25775 7.61857 8.09788 7.51599 7.93601 7.55134C7.77414 7.58668 7.67156 7.74655 7.7069 7.90842L8.2931 7.78044ZM9.38944 6.21945C8.94547 6.21945 8.70453 6.13623 8.57732 6.0348C8.46553 5.94567 8.39643 5.8054 8.39643 5.55155H7.79643C7.79643 5.92135 7.90364 6.26503 8.20326 6.50393C8.48747 6.73054 8.89304 6.81945 9.38944 6.81945V6.21945ZM8.39643 5.55155C8.39643 5.13046 8.80156 4.72233 9.38944 4.72233V4.12233C8.5491 4.12233 7.79643 4.72534 7.79643 5.55155H8.39643ZM10.5 7.64867C10.5 7.96182 10.3836 8.14996 10.213 8.27124C10.0272 8.40334 9.74438 8.47789 9.38944 8.47789V9.07789C9.81353 9.07789 10.236 8.99112 10.5607 8.76025C10.9006 8.51857 11.1 8.1421 11.1 7.64867H10.5ZM9.38944 6.81945C9.83645 6.81945 10.1076 6.89832 10.264 7.01906C10.4031 7.12643 10.5 7.30576 10.5 7.64867H11.1C11.1 7.18499 10.9618 6.79972 10.6307 6.54412C10.3169 6.30189 9.8828 6.21945 9.38944 6.21945V6.81945ZM9.68944 4.42233L9.68944 3.79999L9.08944 3.79999L9.08944 4.42233L9.68944 4.42233ZM9.08944 8.77789V9.39999H9.68944V8.77789H9.08944ZM9.38944 4.72233C9.91004 4.72233 10.2955 5.04846 10.3689 5.41449L10.9572 5.2966C10.818 4.60219 10.144 4.12233 9.38944 4.12233V4.72233ZM9.38944 8.47789C8.79108 8.47789 8.37037 8.13436 8.2931 7.78044L7.7069 7.90842C7.86121 8.61519 8.59654 9.07789 9.38944 9.07789V8.47789Z" fill="#E05369"/>
</svg>
