<svg width="48" height="48" viewBox="0 0 48 48" fill="none" xmlns="http://www.w3.org/2000/svg">
<rect width="48" height="48" rx="5.48571" fill="#E05369"/>
<path d="M23.9999 13.9195C24.8146 13.9195 25.596 14.2229 26.1721 14.763C26.7482 15.3031 27.0719 16.0357 27.0719 16.7995V22.5595H20.9279V16.7995C20.9279 16.0357 21.2515 15.3031 21.8276 14.763C22.4037 14.2229 23.1851 13.9195 23.9999 13.9195ZM28.6079 22.5595V16.7995C28.6079 15.6538 28.1224 14.5549 27.2582 13.7448C26.3941 12.9346 25.222 12.4795 23.9999 12.4795C22.7778 12.4795 21.6057 12.9346 20.7415 13.7448C19.8774 14.5549 19.3919 15.6538 19.3919 16.7995V22.5595C18.5771 22.5595 17.7957 22.8629 17.2196 23.403C16.6435 23.9431 16.3199 24.6757 16.3199 25.4395V32.6395C16.3199 33.4033 16.6435 34.1359 17.2196 34.676C17.7957 35.2161 18.5771 35.5195 19.3919 35.5195H28.6079C29.4226 35.5195 30.204 35.2161 30.7801 34.676C31.3562 34.1359 31.6799 33.4033 31.6799 32.6395V25.4395C31.6799 24.6757 31.3562 23.9431 30.7801 23.403C30.204 22.8629 29.4226 22.5595 28.6079 22.5595Z" fill="white"/>
</svg>
