<svg width="16" height="16" viewBox="0 0 16 16" fill="none" xmlns="http://www.w3.org/2000/svg">
<path d="M1.33337 14C1.33328 13.1375 1.54238 12.2878 1.94276 11.5238C2.34313 10.7598 2.92283 10.1043 3.63214 9.61354C4.34145 9.12277 5.15921 8.81136 6.0153 8.70601C6.87138 8.60066 7.74024 8.70451 8.54737 9.00867" stroke="white" stroke-width="1.25" stroke-linecap="round" stroke-linejoin="round"/>
<path d="M14.252 11.084C14.5176 10.8184 14.6668 10.4582 14.6668 10.0827C14.6668 9.70709 14.5176 9.3469 14.252 9.08133C13.9865 8.81576 13.6263 8.66656 13.2507 8.66656C12.8751 8.66656 12.5149 8.81576 12.2494 9.08133L9.57603 11.756C9.41752 11.9144 9.30151 12.1102 9.23869 12.3253L8.68069 14.2387C8.66396 14.296 8.66296 14.3568 8.67779 14.4147C8.69262 14.4726 8.72274 14.5254 8.76499 14.5677C8.80724 14.61 8.86008 14.6401 8.91796 14.6549C8.97585 14.6697 9.03666 14.6687 9.09402 14.652L11.0074 14.094C11.2225 14.0312 11.4183 13.9152 11.5767 13.7567L14.252 11.084Z" stroke="white" stroke-width="1.25" stroke-linecap="round" stroke-linejoin="round"/>
<path d="M6.66671 8.66667C8.50766 8.66667 10 7.17428 10 5.33333C10 3.49238 8.50766 2 6.66671 2C4.82576 2 3.33337 3.49238 3.33337 5.33333C3.33337 7.17428 4.82576 8.66667 6.66671 8.66667Z" stroke="white" stroke-width="1.25" stroke-linecap="round" stroke-linejoin="round"/>
</svg>
