<svg width="101" height="20" viewBox="0 0 101 20" fill="none" xmlns="http://www.w3.org/2000/svg">
<path d="M2.85333 7.28C3.44 6.69333 4.16889 6.23111 5.04 5.89333C5.92889 5.55556 6.72 5.38667 7.41333 5.38667C9.17333 5.38667 10.4178 5.90222 11.1467 6.93333C11.8933 7.96445 12.2667 9.22667 12.2667 10.72V18.8267H8.8V10.88C8.8 10.0622 8.60445 9.44 8.21333 9.01333C7.82222 8.56889 7.25333 8.34667 6.50667 8.34667C6.00889 8.34667 5.48445 8.48 4.93333 8.74667C4.4 8.99556 3.91111 9.28889 3.46667 9.62667V18.8267H0V5.89333H1.81333L2.85333 7.28Z" fill="white"/>
<path d="M22.1621 19.1467C19.9221 19.1467 18.1532 18.5333 16.8554 17.3067C15.5754 16.08 14.9354 14.4356 14.9354 12.3733C14.9354 10.3111 15.5132 8.65778 16.6688 7.41333C17.8421 6.16889 19.4332 5.54667 21.4421 5.54667C23.4688 5.54667 24.9532 6.22222 25.8954 7.57333C26.8554 8.90667 27.3354 10.4889 27.3354 12.32V13.3867H18.6154C18.7754 14.24 19.1665 14.9244 19.7888 15.44C20.411 15.9378 21.2288 16.1867 22.2421 16.1867C22.8288 16.1867 23.3532 16.1156 23.8154 15.9733C24.2954 15.8133 24.8465 15.5911 25.4688 15.3067L26.4821 17.8133C25.8776 18.2756 25.1399 18.6133 24.2688 18.8267C23.4154 19.04 22.7132 19.1467 22.1621 19.1467ZM24.0554 11.0667C23.8776 10.1956 23.5576 9.55556 23.0954 9.14667C22.6332 8.72 22.0554 8.50667 21.3621 8.50667C20.651 8.50667 20.0554 8.72889 19.5754 9.17333C19.0954 9.6 18.7843 10.2311 18.6421 11.0667H24.0554Z" fill="white"/>
<path d="M38 18.56C37.7156 18.7911 37.3067 18.9778 36.7733 19.12C36.2578 19.28 35.7956 19.36 35.3867 19.36C33.7867 19.36 32.5244 18.96 31.6 18.16C30.6933 17.3422 30.24 16.1867 30.24 14.6933V8.58667H28.5067V5.92H30.24V2.85333L33.68 2.24V5.92H36.0267L37.0933 8.58667H33.68V14.08C33.68 14.7556 33.84 15.3156 34.16 15.76C34.48 16.1867 34.9511 16.4 35.5733 16.4C35.8044 16.4 36.0356 16.3733 36.2667 16.32C36.4978 16.2667 36.7378 16.1778 36.9867 16.0533L38 18.56Z" fill="white"/>
<path d="M50.9352 18.8267L48.2419 10.9067L45.6552 18.8267H42.7219L38.4285 6.37333L42.0019 5.89333L44.2685 13.4133L46.4019 5.89333H50.2152L52.4819 13.4133L54.5885 5.89333H58.2419L53.8419 18.8267H50.9352Z" fill="white"/>
<path d="M66.0254 19.1467C63.981 19.1289 62.381 18.5067 61.2254 17.28C60.0876 16.0533 59.5188 14.4 59.5188 12.32C59.5188 10.2578 60.1143 8.61333 61.3054 7.38667C62.5143 6.16 64.1588 5.54667 66.2388 5.54667C68.3899 5.54667 70.0521 6.18667 71.2254 7.46667C72.4165 8.72889 73.0121 10.3911 73.0121 12.4533C73.0121 14.5156 72.3721 16.1422 71.0921 17.3333C69.8121 18.5244 68.1232 19.1289 66.0254 19.1467ZM69.4388 12.4533C69.4388 11.2267 69.1632 10.2667 68.6121 9.57333C68.0788 8.86222 67.3143 8.50667 66.3188 8.50667C65.3054 8.50667 64.5143 8.81778 63.9454 9.44C63.3765 10.0622 63.0921 11.0133 63.0921 12.2933C63.0921 13.5733 63.3321 14.5422 63.8121 15.2C64.3099 15.8578 65.0654 16.1867 66.0788 16.1867C67.0743 16.1867 67.8832 15.8933 68.5054 15.3067C69.1276 14.7022 69.4388 13.7511 69.4388 12.4533Z" fill="white"/>
<path d="M82.8746 5.89333L83.5679 8.66667C82.9813 8.66667 82.2968 8.83556 81.5146 9.17333C80.7501 9.51111 79.9946 10.0089 79.2479 10.6667V18.8267H75.7812V5.89333H77.5946L78.7412 7.78667C79.2746 7.32444 79.9235 6.89778 80.6879 6.50667C81.4524 6.09778 82.1812 5.89333 82.8746 5.89333Z" fill="white"/>
<path d="M88.9652 0V10.6133L94.5119 5.52L96.4585 7.97333L92.8319 11.1467L97.5785 18.8267H93.6052L90.3519 13.36L88.9652 14.5867V18.8267H85.5252V0.293333L88.9652 0Z" fill="white"/>
<path d="M99.8537 4.279C99.6979 4.279 99.5607 4.3402 99.4453 4.4262L98.6921 3.82487C98.8037 3.63814 98.8719 3.42347 98.8719 3.191C98.8719 2.9368 98.7943 2.70127 98.6642 2.50367L99.2492 1.98754C99.3787 2.08134 99.5282 2.148 99.6995 2.148C100.133 2.148 100.484 1.79534 100.484 1.3622C100.484 0.929071 100.133 0.577204 99.6995 0.577204C99.2671 0.577204 98.9145 0.929871 98.9145 1.3622C98.9145 1.4986 98.9594 1.621 99.0206 1.7334L98.4333 2.25027C98.2155 2.06194 97.9357 1.94494 97.625 1.94494C97.508 1.94494 97.3957 1.96667 97.2871 1.9976L96.8919 1.10187C96.9849 1.01194 97.0431 0.887937 97.0431 0.748537C97.0431 0.476537 96.8222 0.254871 96.5495 0.254871C96.2767 0.254871 96.0574 0.476471 96.0574 0.748471C96.0574 0.813298 96.0701 0.877496 96.0949 0.937394C96.1197 0.997292 96.1561 1.05172 96.2019 1.09756C96.2478 1.1434 96.3022 1.17975 96.3621 1.20455C96.422 1.22935 96.4862 1.2421 96.551 1.24207C96.5611 1.24207 96.5688 1.2374 96.5789 1.23674L96.9741 2.13407C96.6192 2.35334 96.3789 2.74307 96.3789 3.191C96.3789 3.19407 96.3797 3.198 96.3797 3.20107L95.9698 3.26154C95.8458 2.9082 95.5173 2.65087 95.1221 2.65087C94.6215 2.65087 94.2139 3.05847 94.2139 3.55987C94.2139 4.06047 94.6207 4.46807 95.1221 4.46807C95.6087 4.46807 96.0001 4.0806 96.0217 3.60014L96.4347 3.53894C96.5494 3.9318 96.8517 4.241 97.2391 4.36887L97.1074 5.09574C96.8795 5.13907 96.7029 5.33054 96.7029 5.57154C96.7029 5.84427 96.9229 6.06514 97.1957 6.06514C97.4685 6.06514 97.6893 5.84427 97.6893 5.57154C97.6893 5.39254 97.5886 5.2414 97.4453 5.1554L97.5762 4.43087C97.5925 4.4316 97.6087 4.43627 97.6258 4.43627C97.9575 4.43627 98.2566 4.30454 98.4805 4.09374L99.2245 4.68887C99.1841 4.77567 99.1601 4.871 99.1601 4.97254C99.1601 5.35534 99.4701 5.66607 99.8544 5.66607C100.236 5.66607 100.547 5.35607 100.547 4.97254C100.546 4.59054 100.236 4.279 99.8537 4.279Z" fill="white"/>
</svg>
