<svg width="20" height="20" viewBox="0 0 20 20" fill="none" xmlns="http://www.w3.org/2000/svg">
<g clip-path="url(#clip0_2714_1376)">
<path d="M10 6.66666V13.3333" stroke="white" stroke-width="2" stroke-linecap="round" stroke-linejoin="round"/>
<path d="M2.24997 8.58333C2.06326 8.76985 1.91514 8.99133 1.81408 9.23513C1.71303 9.47893 1.66101 9.74025 1.66101 10.0042C1.66101 10.2681 1.71303 10.5294 1.81408 10.7732C1.91514 11.017 2.06326 11.2385 2.24997 11.425L8.57496 17.75C8.76148 17.9367 8.98297 18.0848 9.22677 18.1859C9.47056 18.2869 9.73189 18.3389 9.9958 18.3389C10.2597 18.3389 10.521 18.2869 10.7648 18.1859C11.0086 18.0848 11.2301 17.9367 11.4166 17.75L17.7416 11.425C17.9283 11.2385 18.0765 11.017 18.1775 10.7732C18.2786 10.5294 18.3306 10.2681 18.3306 10.0042C18.3306 9.74025 18.2786 9.47893 18.1775 9.23513C18.0765 8.99133 17.9283 8.76985 17.7416 8.58333L11.4166 2.25833C11.2301 2.07162 11.0086 1.9235 10.7648 1.82244C10.521 1.72139 10.2597 1.66937 9.9958 1.66937C9.73189 1.66937 9.47056 1.72139 9.22677 1.82244C8.98297 1.9235 8.76148 2.07162 8.57496 2.25833L2.24997 8.58333Z" stroke="white" stroke-width="2" stroke-linecap="round" stroke-linejoin="round"/>
<path d="M6.66663 10H13.3333" stroke="white" stroke-width="2" stroke-linecap="round" stroke-linejoin="round"/>
</g>
<defs>
<clipPath id="clip0_2714_1376">
<rect width="20" height="20" fill="white"/>
</clipPath>
</defs>
</svg>
