<svg width="16" height="16" viewBox="0 0 16 16" fill="none" xmlns="http://www.w3.org/2000/svg">
<g clip-path="url(#clip0_2790_2053)">
<path d="M14.0001 8.00001C14.3681 8.00001 14.6701 7.70067 14.6334 7.33467C14.4797 5.80412 13.8014 4.37381 12.7136 3.28622C11.6258 2.19864 10.1953 1.5207 8.66472 1.36734C8.29806 1.33067 7.99939 1.63267 7.99939 2.00067V7.33401C7.99939 7.51082 8.06963 7.68039 8.19465 7.80541C8.31968 7.93044 8.48925 8.00067 8.66606 8.00067L14.0001 8.00001Z" stroke="white" stroke-width="1.25" stroke-linecap="round" stroke-linejoin="round"/>
<path d="M14.1399 10.5933C13.7158 11.5963 13.0525 12.4801 12.2079 13.1675C11.3633 13.8549 10.3631 14.3249 9.2949 14.5365C8.22668 14.7481 7.12289 14.6948 6.08004 14.3812C5.03719 14.0676 4.08703 13.5034 3.31262 12.7378C2.53822 11.9722 1.96315 11.0285 1.6377 9.98929C1.31225 8.95009 1.24632 7.84698 1.44568 6.77641C1.64503 5.70584 2.10361 4.70041 2.78131 3.84801C3.45901 2.99561 4.3352 2.3222 5.33328 1.88666" stroke="white" stroke-width="1.25" stroke-linecap="round" stroke-linejoin="round"/>
</g>
<defs>
<clipPath id="clip0_2790_2053">
<rect width="16" height="16" fill="white"/>
</clipPath>
</defs>
</svg>
