<svg width="22" height="24" viewBox="0 0 22 24" fill="none" xmlns="http://www.w3.org/2000/svg">
<path d="M20.0396 9.52401V5.49364C14.7712 5.27119 14.6017 0.483757 14.6017 0.0338985V0H10.5297V15.697C10.5292 16.3753 10.3149 17.0362 9.91714 17.5857C9.51939 18.1352 8.95851 18.5452 8.31427 18.7575C7.67004 18.9698 6.97526 18.9735 6.32878 18.7681C5.68231 18.5628 5.11706 18.1588 4.71345 17.6136C4.30985 17.0684 4.08844 16.4099 4.08072 15.7316C4.07301 15.0533 4.27938 14.3899 4.67048 13.8357C5.06159 13.2815 5.6175 12.8647 6.25914 12.6447C6.90077 12.4247 7.59545 12.4126 8.24435 12.6102V8.45339C7.93239 8.41337 7.61819 8.39332 7.30368 8.39336C5.85915 8.39336 4.44705 8.82171 3.24597 9.62425C2.04489 10.4268 1.10876 11.5675 0.555962 12.902C0.0031646 14.2366 -0.141473 15.7051 0.140341 17.1219C0.422155 18.5387 1.11776 19.8401 2.1392 20.8615C3.16064 21.8829 4.46203 22.5786 5.8788 22.8604C7.29557 23.1422 8.7641 22.9975 10.0987 22.4447C11.4332 21.8919 12.5739 20.9558 13.3765 19.7547C14.179 18.5537 14.6073 17.1416 14.6073 15.697C14.6073 15.5946 14.6073 15.4929 14.6003 15.3919V7.66243C16.4753 9.37782 20.0396 9.52401 20.0396 9.52401Z" fill="#00F6EF"/>
<path d="M21.2388 10.5226V6.4901C15.9697 6.26765 15.8009 1.48022 15.8009 1.03036V0.99646H11.7289V16.6935C11.7286 17.3718 11.5144 18.0328 11.1167 18.5824C10.7191 19.1319 10.1582 19.5421 9.51399 19.7545C8.86976 19.9669 8.17495 19.9707 7.52842 19.7654C6.88189 19.5601 6.31657 19.1562 5.91288 18.611C5.5092 18.0659 5.28771 17.4073 5.27994 16.729C5.27217 16.0507 5.47851 15.3872 5.8696 14.833C6.26069 14.2787 6.81661 13.8619 7.45827 13.6419C8.09993 13.4218 8.79464 13.4097 9.44357 13.6073V9.44985C9.13085 9.41068 8.81594 9.39158 8.50077 9.39265C7.05621 9.39306 5.64422 9.82184 4.44336 10.6248C3.24249 11.4277 2.30669 12.5687 1.7543 13.9034C1.20191 15.2382 1.05774 16.7068 1.34003 18.1235C1.62231 19.5402 2.31836 20.8414 3.34017 21.8625C4.36197 22.8837 5.66363 23.5788 7.08053 23.8601C8.49743 24.1415 9.96594 23.9963 11.3003 23.443C12.6347 22.8897 13.7751 21.9532 14.5772 20.7517C15.3793 19.5503 15.8071 18.1381 15.8066 16.6935C15.8066 16.5911 15.8066 16.4894 15.7995 16.3884V8.65889C17.6745 10.3743 21.2388 10.5226 21.2388 10.5226Z" fill="white"/>
<path d="M14.7027 0.99646C14.899 2.06567 15.4725 3.73728 17.1441 4.71539C15.8665 3.22739 15.8023 1.30719 15.8023 1.03036V0.99646H14.7027ZM21.2387 10.5226V6.4901C20.8354 6.47532 20.4339 6.42809 20.0382 6.34886V9.5233C20.0382 9.5233 16.4739 9.37711 14.6003 7.66171V15.3891C14.6045 15.4901 14.6074 15.5918 14.6074 15.6942C14.6072 17.0156 14.2485 18.3122 13.5697 19.4459C12.8908 20.5796 11.9171 21.5079 10.7523 22.1319C9.58747 22.7559 8.27522 23.0522 6.9553 22.9893C5.63539 22.9264 4.35726 22.5066 3.25708 21.7747C4.26887 22.8196 5.56963 23.5386 6.99266 23.8395C8.41569 24.1404 9.89617 24.0096 11.2443 23.4637C12.5925 22.9178 13.747 21.9818 14.5598 20.7756C15.3726 19.5694 15.8067 18.148 15.8065 16.6935C15.8065 16.5911 15.8065 16.4894 15.7995 16.3884V8.65889C17.6745 10.3743 21.2387 10.5226 21.2387 10.5226Z" fill="#FF004F"/>
<path d="M8.2444 12.6081C7.46686 12.3709 6.62847 12.436 5.89684 12.7903C5.16521 13.1446 4.59425 13.762 4.29813 14.519C4.002 15.276 4.00253 16.1169 4.2996 16.8736C4.59667 17.6303 5.1684 18.2469 5.90047 18.6003C5.50041 18.0538 5.28244 17.3954 5.27743 16.7181C5.27242 16.0409 5.48063 15.3792 5.87257 14.8269C6.2645 14.2746 6.82029 13.8596 7.4612 13.6407C8.10211 13.4218 8.79564 13.4102 9.44355 13.6074V9.44988C9.13083 9.41072 8.81592 9.39161 8.50076 9.39268C8.41389 9.39268 8.32844 9.39268 8.24228 9.39763L8.2444 12.6081Z" fill="#FF004F"/>
</svg>
