<svg width="18" height="18" viewBox="0 0 18 18" fill="none" xmlns="http://www.w3.org/2000/svg">
<path d="M12.3429 7.2643C12.3429 7.11085 12.4038 6.96369 12.5123 6.85519C12.6208 6.74669 12.768 6.68573 12.9214 6.68573H14.0786C14.232 6.68573 14.3792 6.74669 14.4877 6.85519C14.5962 6.96369 14.6572 7.11085 14.6572 7.2643V8.42144C14.6572 8.57489 14.5962 8.72205 14.4877 8.83056C14.3792 8.93906 14.232 9.00002 14.0786 9.00002H12.9214C12.768 9.00002 12.6208 8.93906 12.5123 8.83056C12.4038 8.72205 12.3429 8.57489 12.3429 8.42144V7.2643Z" fill="#7C3552"/>
<path d="M3.9375 0C4.08668 0 4.22976 0.0592632 4.33525 0.164752C4.44074 0.270242 4.5 0.413316 4.5 0.5625V1.125H13.5V0.5625C13.5 0.413316 13.5593 0.270242 13.6648 0.164752C13.7702 0.0592632 13.9133 0 14.0625 0C14.2117 0 14.3548 0.0592632 14.4602 0.164752C14.5657 0.270242 14.625 0.413316 14.625 0.5625V1.125H15.75C16.3467 1.125 16.919 1.36205 17.341 1.78401C17.7629 2.20597 18 2.77826 18 3.375V15.75C18 16.3467 17.7629 16.919 17.341 17.341C16.919 17.7629 16.3467 18 15.75 18H2.25C1.65326 18 1.08097 17.7629 0.65901 17.341C0.237053 16.919 0 16.3467 0 15.75V3.375C0 2.77826 0.237053 2.20597 0.65901 1.78401C1.08097 1.36205 1.65326 1.125 2.25 1.125H3.375V0.5625C3.375 0.413316 3.43426 0.270242 3.53975 0.164752C3.64524 0.0592632 3.78832 0 3.9375 0ZM1.125 4.5V15.75C1.125 16.0484 1.24353 16.3345 1.4545 16.5455C1.66548 16.7565 1.95163 16.875 2.25 16.875H15.75C16.0484 16.875 16.3345 16.7565 16.5455 16.5455C16.7565 16.3345 16.875 16.0484 16.875 15.75V4.5H1.125Z" fill="#7C3552"/>
</svg>
