<svg width="31" height="31" viewBox="0 0 31 31" fill="none" xmlns="http://www.w3.org/2000/svg">
<path fill-rule="evenodd" clip-rule="evenodd" d="M2.85656 10.2629C2.4251 8.26383 2.9862 6.09348 4.53984 4.53984C6.0935 2.9862 8.26383 2.4251 10.2629 2.85654C11.3714 1.1379 13.3028 0 15.5 0C17.6971 0 19.6286 1.13791 20.7371 2.85656C22.7362 2.4251 24.9065 2.9862 26.4602 4.53984C28.0138 6.0935 28.5749 8.26383 28.1435 10.2629C29.8621 11.3714 31 13.3028 31 15.5C31 17.6971 29.8621 19.6286 28.1435 20.7371C28.5749 22.7362 28.0138 24.9065 26.4602 26.4602C24.9065 28.0138 22.7362 28.5749 20.7371 28.1435C19.6286 29.8621 17.6971 31 15.5 31C13.3028 31 11.3714 29.8621 10.2629 28.1435C8.26383 28.5749 6.0935 28.0138 4.53984 26.4602C2.9862 24.9065 2.4251 22.7362 2.85656 20.7371C1.1379 19.6286 0 17.6971 0 15.5C0 13.3028 1.1379 11.3714 2.85656 10.2629ZM11.0756 19.9167C13.5075 22.3485 17.4505 22.3485 19.8825 19.9167C22.3144 17.4848 22.3144 13.5418 19.8825 11.1098C17.4505 8.67788 13.5075 8.67788 11.0756 11.1098C8.64367 13.5418 8.64367 17.4848 11.0756 19.9167Z" fill="white"/>
</svg>
