<svg width="24" height="14" viewBox="0 0 24 14" fill="none" xmlns="http://www.w3.org/2000/svg">
<path fill-rule="evenodd" clip-rule="evenodd" d="M3.52583 0H0.900214C0.150048 0 0 0.346916 0 0.729338C0 1.41246 0.89016 4.80038 4.14466 9.2812C6.31437 12.3413 9.37121 14 12.1529 14C13.8219 14 14.0283 13.6316 14.0283 12.997V10.6842C14.0283 9.94733 14.1864 9.80026 14.7148 9.80026C15.1043 9.80026 15.7719 9.99154 17.3296 11.4669C19.1099 13.2155 19.4034 14 20.4047 14H23.0303C23.7805 14 24.1556 13.6316 23.9392 12.9045C23.7024 12.1799 22.8525 11.1285 21.7246 9.88233C21.1126 9.17192 20.1947 8.40694 19.9165 8.02438C19.5271 7.5326 19.6384 7.31397 19.9165 6.8769C19.9165 6.8769 23.1155 2.45065 23.4492 0.948043C23.6161 0.401557 23.4492 0 22.6552 0H20.0296C19.362 0 19.0542 0.346916 18.8873 0.729338C18.8873 0.729338 17.5521 3.92605 15.6606 6.00257C15.0486 6.60362 14.7705 6.79491 14.4366 6.79491C14.2698 6.79491 14.0282 6.60362 14.0282 6.05728V0.948043C14.0282 0.292274 13.8345 0 13.278 0H9.15205C8.73488 0 8.48394 0.304293 8.48394 0.592768C8.48394 1.21434 9.42972 1.35775 9.52717 3.10635V6.90419C9.52717 7.7368 9.37403 7.88781 9.04025 7.88781C8.15016 7.88781 5.98495 4.6768 4.70083 1.00255C4.44932 0.288475 4.1969 0 3.52583 0Z" fill="white"/>
</svg>
