<svg width="15" height="15" viewBox="0 0 15 15" fill="none" xmlns="http://www.w3.org/2000/svg">
<path d="M9.39563 5.90005C9.45701 5.93557 9.50797 5.9866 9.54339 6.04803C9.57882 6.10947 9.59747 6.17913 9.59747 6.25005C9.59747 6.32096 9.57882 6.39063 9.54339 6.45206C9.50797 6.5135 9.45701 6.56453 9.39563 6.60005L6.855 8.07005C6.79365 8.10555 6.72402 8.12424 6.65313 8.12424C6.58225 8.12424 6.51261 8.10555 6.45126 8.07006C6.3899 8.03456 6.33899 7.98351 6.30366 7.92206C6.26832 7.86061 6.24981 7.79093 6.25 7.72005V4.78005C6.24988 4.70926 6.2684 4.63968 6.3037 4.57832C6.339 4.51696 6.38984 4.46597 6.4511 4.4305C6.51236 4.39502 6.58189 4.3763 6.65268 4.37622C6.72347 4.37614 6.79304 4.39471 6.85438 4.43005L9.39563 5.90005Z" stroke="white" stroke-width="1.25" stroke-linecap="round" stroke-linejoin="round"/>
<path d="M4.375 13.125H10.625" stroke="white" stroke-width="1.25" stroke-linecap="round" stroke-linejoin="round"/>
<path d="M12.5 1.875H2.5C1.80964 1.875 1.25 2.43464 1.25 3.125V9.375C1.25 10.0654 1.80964 10.625 2.5 10.625H12.5C13.1904 10.625 13.75 10.0654 13.75 9.375V3.125C13.75 2.43464 13.1904 1.875 12.5 1.875Z" stroke="white" stroke-width="1.25" stroke-linecap="round" stroke-linejoin="round"/>
</svg>
