<svg width="24" height="24" viewBox="0 0 24 24" fill="none" xmlns="http://www.w3.org/2000/svg">
<g clip-path="url(#clip0_2788_1628)">
<path d="M20.5911 3.40889C18.3928 1.2105 15.4706 0 12.3615 0H12.3604C10.8226 0.0001875 9.32409 0.297891 7.90669 0.885141C6.48909 1.47234 5.21906 2.32139 4.13161 3.40889C1.9334 5.60705 0.722857 8.5298 0.722857 11.6385C0.722857 13.4925 1.17023 15.3349 2.01783 16.9764L0.0615444 22.5652C-0.0763619 22.9594 0.0212319 23.3879 0.316779 23.6832C0.523498 23.8901 0.795607 24 1.07531 24C1.19526 24 1.31648 23.9798 1.43475 23.9385L7.02351 21.9824C8.66508 22.83 10.5075 23.2773 12.3614 23.2773C15.4702 23.2773 18.3927 22.0666 20.5911 19.8684C22.7893 17.6702 24 14.7475 24 11.6387C24 8.5298 22.7895 5.60705 20.5911 3.40889ZM19.5958 18.873C17.6634 20.8056 15.0941 21.8696 12.3615 21.8696C10.6897 21.8696 9.02892 21.4561 7.55859 20.6735C7.29201 20.5318 6.97687 20.5074 6.69398 20.6065L1.61648 22.3835L3.39365 17.306C3.49275 17.0228 3.46819 16.7077 3.32648 16.4412C2.54404 14.9712 2.13042 13.3105 2.13042 11.6385C2.13042 8.90588 3.19462 6.33652 5.12695 4.40423C7.05909 2.47209 9.62803 1.40789 12.3605 1.40752H12.3615C15.0943 1.40752 17.6635 2.47172 19.5958 4.40423C21.5283 6.33656 22.5925 8.90569 22.5925 11.6385C22.5925 14.3714 21.5283 16.9407 19.5958 18.873Z" fill="white"/>
<path d="M16.6868 12.6782C16.1515 12.1428 15.2802 12.1428 14.7448 12.6782L14.1593 13.2638C12.7052 12.4715 11.5285 11.2948 10.7361 9.84078L11.3216 9.25522C11.8572 8.71981 11.8572 7.84864 11.3216 7.31319L9.74364 5.73523C9.20824 5.19983 8.33702 5.19983 7.80161 5.73523L6.53927 6.99758C5.81622 7.72062 5.78017 8.96375 6.43769 10.498C7.00863 11.8301 8.05343 13.2942 9.37966 14.6204C10.7059 15.9466 12.17 16.9914 13.5021 17.5624C14.231 17.8747 14.894 18.0305 15.467 18.0305C16.1 18.0305 16.6229 17.8403 17.0025 17.4607L18.2649 16.1982V16.1984C18.5243 15.9389 18.6671 15.5942 18.6671 15.2274C18.6671 14.8604 18.5243 14.5157 18.2648 14.2564L16.6868 12.6782ZM16.0071 16.4654C15.8008 16.6717 15.1661 16.7441 14.0567 16.2687C12.8852 15.7667 11.5776 14.8277 10.375 13.625C9.17238 12.4224 8.23357 11.115 7.73153 9.94348C7.25599 8.83409 7.32832 8.19927 7.53466 7.99292L8.77281 6.75477L10.3021 8.2842L9.56918 9.01737C9.23777 9.34878 9.15771 9.85142 9.37028 10.2682C10.334 12.1578 11.8422 13.6661 13.7319 14.6298C14.1488 14.8423 14.6515 14.7625 14.9829 14.4309L15.7158 13.6979L17.2453 15.2274L16.0071 16.4654Z" fill="white"/>
</g>
<defs>
<clipPath id="clip0_2788_1628">
<rect width="24" height="24" fill="white"/>
</clipPath>
</defs>
</svg>
